<mxfile host="app.diagrams.net" modified="2023-10-28T13:30:08.492Z" agent="Mozilla/5.0 (Macintosh; Intel Mac OS X 10_15_7) AppleWebKit/605.1.15 (KHTML, like Gecko) Version/16.4 Safari/605.1.15" version="22.0.8" etag="on09t4HsTXD0JoPEcWVG" type="github">
  <diagram name="第 1 页" id="KDc5GyMGKKXnC2G15--K">
    <mxGraphModel>
      <root>
        <mxCell id="0" />
        <mxCell id="1" parent="0" />
      </root>
    </mxGraphModel>
  </diagram>
</mxfile>
